<?xml version="1.0" standalone="no"?>
<!DOCTYPE svg PUBLIC "-//W3C//DTD SVG 20010904//EN"
 "http://www.w3.org/TR/2001/REC-SVG-20010904/DTD/svg10.dtd">
<svg version="1.0" xmlns="http://www.w3.org/2000/svg"
 width="54.000000pt" height="50.000000pt" viewBox="0 0 54.000000 50.000000"
 preserveAspectRatio="xMidYMid meet">

<g transform="translate(0.000000,50.000000) scale(0.100000,-0.100000)"
fill="#000000" stroke="none">
<path d="M221 434 c-12 -15 -21 -33 -21 -41 0 -23 47 -63 74 -63 25 0 66 41
66 65 0 27 -41 65 -70 65 -19 0 -36 -9 -49 -26z m77 -6 c34 -34 -6 -90 -48
-68 -35 19 -20 80 20 80 9 0 21 -5 28 -12z"/>
<path d="M222 258 c-6 -6 -12 -29 -12 -50 0 -72 86 -91 118 -25 11 22 11 32 0
55 -11 22 -21 28 -53 30 -23 2 -46 -3 -53 -10z"/>
<path d="M50 148 c-40 -43 -14 -108 44 -108 41 0 66 26 66 68 0 57 -70 82
-110 40z m74 -14 c29 -29 13 -74 -25 -74 -19 0 -49 25 -49 41 0 12 37 49 49
49 5 0 17 -7 25 -16z"/>
<path d="M402 154 c-28 -19 -30 -74 -4 -97 63 -57 152 33 92 93 -24 24 -57 26
-88 4z m68 -24 c24 -24 25 -34 4 -54 -29 -29 -74 -13 -74 25 0 19 25 49 41 49
5 0 18 -9 29 -20z"/>
</g>
</svg>
